<svg id="svg" version="1.1" xmlns="http://www.w3.org/2000/svg" xmlns:xlink="http://www.w3.org/1999/xlink" width="20px" height="20px" viewBox="0, 0, 400,400"><g id="svgg"><path id="path0" d="M35.382 62.698 C 35.516 63.047,35.106 63.200,34.036 63.200 C 32.531 63.200,31.315 63.981,31.903 64.570 C 32.067 64.733,32.020 64.830,31.800 64.786 C 30.347 64.493,29.200 64.852,29.200 65.600 C 29.200 66.133,28.933 66.400,28.400 66.400 C 27.867 66.400,27.600 66.667,27.600 67.200 C 27.600 67.707,27.344 67.988,26.900 67.968 C 26.478 67.949,26.399 67.856,26.702 67.734 C 26.979 67.623,27.103 67.367,26.979 67.166 C 26.623 66.590,26.000 66.739,26.000 67.400 C 26.000 67.730,25.713 68.000,25.363 68.000 C 25.012 68.000,24.631 68.360,24.516 68.800 C 24.401 69.240,24.041 69.600,23.716 69.600 C 23.391 69.600,23.035 69.943,22.926 70.363 C 22.816 70.783,22.383 71.216,21.963 71.326 C 21.391 71.475,21.200 71.885,21.200 72.963 C 21.200 74.133,21.052 74.400,20.400 74.400 C 19.883 74.400,19.600 74.667,19.600 75.153 C 19.600 75.568,19.250 75.998,18.822 76.110 C 18.196 76.274,18.021 76.729,17.922 78.457 C 17.821 80.240,17.682 80.580,17.100 80.482 C 16.498 80.381,16.400 80.702,16.400 82.782 C 16.400 84.582,16.258 85.200,15.843 85.200 C 14.810 85.200,14.800 86.264,14.800 200.000 C 14.800 312.824,14.817 314.800,15.796 314.800 C 16.142 314.800,16.361 315.655,16.475 317.448 C 16.595 319.333,16.840 320.240,17.322 320.592 C 17.717 320.881,18.000 321.627,18.000 322.382 C 18.000 323.338,18.208 323.729,18.800 323.884 C 19.243 324.000,19.600 324.430,19.600 324.847 C 19.600 325.333,19.883 325.600,20.400 325.600 C 21.052 325.600,21.200 325.867,21.200 327.037 C 21.200 328.115,21.391 328.525,21.963 328.674 C 22.383 328.784,22.816 329.217,22.926 329.637 C 23.035 330.057,23.391 330.400,23.716 330.400 C 24.041 330.400,24.401 330.760,24.516 331.200 C 24.631 331.640,24.993 332.000,25.320 332.000 C 25.647 332.000,26.014 332.260,26.136 332.578 C 26.258 332.896,26.997 333.276,27.779 333.422 C 28.811 333.616,29.200 333.896,29.200 334.445 C 29.200 335.036,29.493 335.200,30.553 335.200 C 31.570 335.200,31.959 335.399,32.116 336.000 C 32.276 336.613,32.662 336.800,33.763 336.800 C 34.725 336.800,35.200 336.984,35.200 337.357 C 35.200 338.316,36.180 338.400,47.433 338.400 L 58.400 338.400 58.400 235.200 C 58.400 164.031,58.529 132.000,58.816 132.000 C 59.514 132.000,62.071 133.503,64.600 135.400 C 65.920 136.390,67.270 137.323,67.600 137.473 C 67.930 137.623,68.830 138.241,69.600 138.846 C 71.182 140.089,73.956 142.074,77.200 144.285 C 79.344 145.745,85.400 150.059,86.200 150.695 C 86.420 150.870,87.590 151.686,88.800 152.508 C 90.010 153.330,91.990 154.727,93.200 155.613 C 94.410 156.498,96.300 157.844,97.400 158.602 C 98.500 159.361,100.300 160.609,101.400 161.375 C 102.500 162.142,103.735 163.001,104.145 163.284 C 104.990 163.869,107.584 165.812,108.225 166.341 C 108.459 166.534,109.078 166.920,109.600 167.200 C 110.122 167.480,110.741 167.866,110.975 168.059 C 111.880 168.806,114.482 170.707,118.011 173.200 C 126.857 179.449,128.320 180.475,130.400 181.885 C 131.610 182.706,134.220 184.556,136.200 185.997 C 138.180 187.437,140.250 188.924,140.800 189.301 C 141.350 189.677,143.690 191.335,146.000 192.985 C 148.310 194.635,151.128 196.625,152.263 197.407 C 153.397 198.189,154.544 199.092,154.812 199.414 C 155.079 199.736,155.464 200.000,155.666 200.000 C 155.869 200.000,156.971 200.690,158.117 201.534 C 159.263 202.377,161.460 203.940,163.000 205.006 C 164.540 206.072,165.890 207.050,166.000 207.179 C 166.110 207.308,167.495 208.280,169.079 209.340 C 170.662 210.400,172.169 211.522,172.428 211.834 C 172.686 212.145,173.075 212.400,173.291 212.400 C 173.508 212.400,174.180 212.805,174.787 213.300 C 175.393 213.795,176.229 214.429,176.644 214.709 C 177.060 214.989,178.390 215.922,179.600 216.783 C 180.810 217.643,183.060 219.213,184.600 220.271 C 186.140 221.328,187.580 222.387,187.800 222.623 C 188.020 222.859,189.460 223.903,191.000 224.943 C 192.540 225.983,195.060 227.722,196.600 228.806 C 199.430 230.800,200.437 231.138,201.317 230.389 C 202.058 229.757,207.979 225.547,210.000 224.213 C 210.990 223.560,212.070 222.782,212.400 222.485 C 213.076 221.876,217.001 219.101,221.859 215.797 C 223.651 214.578,225.338 213.315,225.608 212.990 C 225.877 212.666,226.282 212.400,226.508 212.400 C 226.733 212.400,227.656 211.809,228.559 211.087 C 229.461 210.365,231.505 208.880,233.101 207.787 C 236.159 205.692,236.520 205.436,241.102 202.100 C 242.689 200.945,244.091 200.000,244.217 200.000 C 244.344 200.000,245.111 199.472,245.923 198.827 C 247.676 197.434,250.430 195.464,254.000 193.048 C 255.430 192.080,257.266 190.773,258.079 190.144 C 258.893 189.515,260.477 188.370,261.600 187.600 C 263.344 186.404,265.467 184.873,267.000 183.705 C 267.220 183.537,268.390 182.731,269.600 181.914 C 270.810 181.097,272.700 179.782,273.800 178.992 C 274.900 178.202,276.430 177.123,277.200 176.595 C 277.970 176.067,279.590 174.914,280.800 174.033 C 282.010 173.152,283.810 171.892,284.800 171.234 C 285.790 170.576,286.960 169.754,287.400 169.407 C 288.413 168.609,293.124 165.270,296.000 163.312 C 297.210 162.488,298.380 161.673,298.600 161.502 C 299.525 160.782,302.133 158.904,304.020 157.600 C 305.134 156.830,306.981 155.533,308.123 154.717 C 309.265 153.901,310.740 152.856,311.400 152.393 C 312.060 151.930,314.169 150.437,316.087 149.076 C 318.005 147.714,320.486 145.970,321.601 145.200 C 322.716 144.430,324.600 143.080,325.788 142.200 C 328.583 140.129,331.056 138.354,332.195 137.600 C 332.694 137.270,334.122 136.280,335.369 135.400 C 338.433 133.237,340.498 132.015,341.100 132.007 C 341.499 132.001,341.600 152.903,341.600 235.200 L 341.600 338.400 353.037 338.400 C 364.138 338.400,364.481 338.376,364.684 337.600 C 364.848 336.973,365.230 336.800,366.447 336.800 C 367.733 336.800,368.000 336.663,368.000 336.000 C 368.000 335.348,368.267 335.200,369.437 335.200 C 370.538 335.200,370.924 335.013,371.084 334.400 C 371.216 333.894,371.630 333.600,372.209 333.600 C 372.928 333.600,373.080 333.428,372.916 332.800 C 372.735 332.109,372.904 332.000,374.153 332.000 C 375.333 332.000,375.600 331.853,375.600 331.200 C 375.600 330.667,375.867 330.400,376.400 330.400 C 376.933 330.400,377.200 330.133,377.200 329.600 C 377.200 329.067,377.467 328.800,378.000 328.800 C 378.667 328.800,378.800 328.533,378.800 327.200 C 378.800 325.867,378.933 325.600,379.600 325.600 C 380.298 325.600,380.601 325.016,380.461 323.941 C 380.443 323.799,380.781 323.775,381.214 323.888 C 381.928 324.074,382.000 323.883,382.000 321.800 C 382.000 319.704,382.069 319.525,382.800 319.716 C 383.539 319.909,383.600 319.728,383.600 317.363 C 383.600 315.398,383.735 314.800,384.176 314.800 C 384.493 314.800,384.876 314.601,385.026 314.357 C 385.211 314.059,385.022 314.003,384.450 314.184 C 383.813 314.386,383.600 314.285,383.600 313.780 C 383.600 313.304,383.834 313.168,384.400 313.316 C 385.199 313.525,385.200 313.328,385.200 200.363 C 385.200 87.467,385.198 87.200,384.400 87.200 C 383.847 87.200,383.600 86.933,383.600 86.338 C 383.600 85.501,383.624 85.497,384.400 86.200 C 384.840 86.598,385.200 86.756,385.200 86.550 C 385.200 86.345,384.840 85.917,384.400 85.600 C 383.749 85.131,383.600 84.565,383.600 82.561 C 383.600 80.843,383.416 79.945,382.991 79.592 C 382.482 79.170,382.423 79.194,382.634 79.743 C 382.774 80.109,382.689 80.400,382.443 80.400 C 382.173 80.400,382.000 79.542,382.000 78.200 C 382.000 75.917,381.450 75.314,380.812 76.900 C 380.510 77.653,380.447 77.523,380.425 76.100 C 380.404 74.675,380.271 74.400,379.600 74.400 C 379.021 74.400,378.800 74.133,378.800 73.433 C 378.800 72.052,378.402 71.200,377.757 71.200 C 377.451 71.200,377.200 70.840,377.200 70.400 C 377.200 69.867,376.933 69.600,376.400 69.600 C 375.867 69.600,375.600 69.333,375.600 68.800 C 375.600 68.216,375.333 68.000,374.613 68.000 C 373.899 68.000,373.689 67.833,373.855 67.400 C 373.982 67.070,373.901 66.800,373.676 66.800 C 373.451 66.800,373.176 67.025,373.065 67.300 C 372.944 67.599,372.850 67.518,372.832 67.100 C 372.813 66.692,372.485 66.400,372.047 66.400 C 371.630 66.400,371.200 66.043,371.084 65.600 C 370.929 65.006,370.538 64.800,369.571 64.800 C 368.854 64.800,368.384 64.683,368.527 64.540 C 369.021 64.046,367.396 63.225,365.900 63.213 C 364.839 63.204,364.400 63.024,364.400 62.600 C 364.400 62.270,364.226 62.000,364.013 62.000 C 363.799 62.000,363.729 62.270,363.855 62.600 C 363.982 62.930,363.886 63.200,363.643 63.200 C 363.399 63.200,363.200 62.930,363.200 62.600 C 363.200 62.181,362.778 62.000,361.800 62.000 C 360.929 62.000,360.400 62.194,360.400 62.512 C 360.400 63.209,358.360 65.032,355.000 67.336 C 353.460 68.393,350.580 70.410,348.600 71.820 C 346.620 73.230,344.460 74.682,343.800 75.047 C 343.140 75.413,342.510 75.834,342.400 75.984 C 342.290 76.133,340.940 77.133,339.400 78.204 C 337.860 79.276,335.817 80.703,334.859 81.376 C 333.902 82.049,332.822 82.780,332.459 83.000 C 332.097 83.220,331.080 83.944,330.200 84.608 C 329.320 85.273,327.790 86.353,326.800 87.007 C 325.810 87.662,324.910 88.306,324.800 88.439 C 324.690 88.572,324.161 88.912,323.625 89.194 C 323.089 89.477,322.459 89.871,322.225 90.069 C 321.151 90.981,312.694 96.896,308.800 99.459 C 308.030 99.966,307.130 100.618,306.800 100.907 C 306.470 101.197,304.850 102.324,303.200 103.411 C 301.550 104.497,300.107 105.513,299.993 105.667 C 299.879 105.820,298.619 106.737,297.193 107.703 C 293.699 110.069,286.740 114.881,282.701 117.722 C 280.885 118.999,278.500 120.663,277.400 121.421 C 273.856 123.862,273.409 124.185,272.871 124.697 C 272.581 124.974,272.189 125.200,272.000 125.200 C 271.811 125.200,271.419 125.431,271.129 125.714 C 270.838 125.997,269.160 127.187,267.400 128.357 C 265.640 129.528,264.110 130.602,264.000 130.744 C 263.890 130.886,262.990 131.541,262.000 132.199 C 261.010 132.857,258.935 134.297,257.388 135.398 C 255.842 136.499,254.285 137.580,253.929 137.800 C 253.326 138.172,252.032 139.074,247.657 142.167 C 246.698 142.845,245.510 143.670,245.017 144.000 C 242.868 145.437,241.786 146.196,241.600 146.400 C 241.490 146.521,239.600 147.843,237.400 149.339 C 235.200 150.835,231.870 153.137,230.000 154.454 C 228.130 155.772,225.610 157.508,224.400 158.314 C 223.190 159.119,221.730 160.143,221.156 160.589 C 220.581 161.035,219.771 161.632,219.356 161.915 C 218.940 162.198,217.070 163.489,215.200 164.785 C 213.330 166.081,210.000 168.365,207.800 169.861 C 205.600 171.357,203.710 172.675,203.600 172.790 C 202.098 174.364,199.175 175.330,198.622 174.436 C 198.498 174.236,196.913 173.062,195.099 171.827 C 193.284 170.592,189.730 168.138,187.200 166.373 C 184.670 164.608,181.880 162.683,181.000 162.095 C 180.120 161.507,178.930 160.660,178.356 160.213 C 177.781 159.766,176.971 159.168,176.556 158.884 C 176.140 158.601,174.900 157.737,173.800 156.965 C 172.700 156.192,170.990 155.037,170.000 154.398 C 167.920 153.055,164.821 150.848,161.996 148.700 C 160.911 147.875,159.921 147.200,159.796 147.200 C 159.559 147.200,157.760 145.982,155.956 144.600 C 155.381 144.160,154.571 143.571,154.156 143.290 C 153.740 143.010,151.870 141.709,150.000 140.400 C 148.130 139.090,144.620 136.659,142.200 134.997 C 139.780 133.336,135.910 130.629,133.600 128.982 C 131.290 127.336,128.605 125.496,127.633 124.894 C 126.661 124.292,125.578 123.530,125.225 123.200 C 124.872 122.870,122.517 121.195,119.992 119.478 C 116.136 116.857,113.590 115.091,109.200 111.992 C 107.404 110.725,104.335 108.611,102.400 107.309 C 101.190 106.495,100.056 105.597,99.880 105.314 C 99.704 105.031,99.344 104.788,99.080 104.773 C 98.816 104.759,97.790 104.137,96.800 103.391 C 95.810 102.645,93.560 101.043,91.800 99.831 C 90.040 98.618,87.700 96.990,86.600 96.211 C 85.500 95.433,83.340 93.930,81.800 92.870 C 80.260 91.810,78.129 90.326,77.065 89.572 C 76.000 88.817,74.827 88.020,74.456 87.800 C 73.503 87.234,71.038 85.484,70.800 85.204 C 70.690 85.075,69.070 83.943,67.200 82.688 C 65.330 81.433,62.540 79.496,61.000 78.384 C 59.460 77.272,57.030 75.569,55.600 74.601 C 52.079 72.215,49.085 70.132,48.600 69.730 C 48.380 69.547,46.865 68.502,45.234 67.407 C 41.588 64.959,39.600 63.228,39.600 62.503 C 39.600 62.089,39.057 61.984,37.395 62.075 C 35.826 62.161,35.245 62.341,35.382 62.698 M16.400 86.400 C 16.400 87.180,15.976 87.442,15.494 86.961 C 15.174 86.640,15.593 85.600,16.043 85.600 C 16.239 85.600,16.400 85.960,16.400 86.400 " stroke="none" fill="#dc4140" fill-rule="evenodd"></path><path id="path1" d="M41.200 62.773 C 41.200 63.198,41.560 63.660,42.000 63.800 C 42.440 63.940,42.800 64.231,42.800 64.448 C 42.800 64.664,43.326 65.025,43.968 65.249 C 44.610 65.473,45.235 65.913,45.355 66.228 C 45.476 66.543,45.823 66.800,46.125 66.800 C 46.428 66.800,47.002 67.160,47.400 67.600 C 47.798 68.040,48.344 68.400,48.613 68.400 C 48.882 68.400,49.323 68.666,49.592 68.990 C 50.090 69.590,56.236 73.873,57.635 74.595 C 58.056 74.812,58.400 75.217,58.400 75.495 C 58.400 75.773,58.689 76.000,59.042 76.000 C 59.631 76.000,61.262 77.119,62.834 78.602 C 63.182 78.931,63.661 79.200,63.898 79.200 C 64.134 79.200,65.239 79.920,66.352 80.800 C 67.466 81.680,68.463 82.400,68.568 82.400 C 69.024 82.400,72.400 84.892,72.400 85.228 C 72.400 85.433,72.625 85.612,72.900 85.627 C 73.175 85.641,74.210 86.270,75.200 87.025 C 76.190 87.779,77.405 88.573,77.900 88.789 C 78.395 89.004,78.800 89.343,78.800 89.542 C 78.800 89.740,79.340 90.127,80.000 90.400 C 80.660 90.673,81.200 91.052,81.200 91.241 C 81.200 91.430,81.650 91.698,82.200 91.836 C 82.750 91.974,83.200 92.337,83.200 92.643 C 83.200 92.950,83.415 93.200,83.678 93.200 C 84.268 93.200,87.282 95.212,87.720 95.899 C 87.896 96.174,88.273 96.400,88.558 96.400 C 88.843 96.400,89.402 96.760,89.800 97.200 C 90.198 97.640,90.695 98.000,90.904 98.000 C 91.113 98.000,91.850 98.453,92.542 99.006 C 93.234 99.559,93.991 100.165,94.225 100.352 C 94.459 100.539,95.089 100.922,95.625 101.204 C 96.161 101.486,96.744 101.961,96.920 102.258 C 97.096 102.556,97.402 102.800,97.600 102.800 C 97.798 102.800,98.795 103.385,99.815 104.100 C 100.836 104.815,102.039 105.609,102.489 105.864 C 102.940 106.119,103.419 106.482,103.554 106.670 C 103.689 106.859,105.124 107.900,106.742 108.983 C 108.360 110.066,109.774 111.188,109.885 111.476 C 109.995 111.764,110.428 112.000,110.847 112.000 C 111.265 112.000,111.916 112.360,112.293 112.800 C 112.670 113.240,113.198 113.600,113.466 113.600 C 113.735 113.600,114.190 113.934,114.477 114.343 C 114.765 114.751,115.405 115.213,115.900 115.370 C 116.395 115.526,116.800 115.831,116.800 116.048 C 116.800 116.264,117.326 116.625,117.968 116.849 C 118.610 117.073,119.235 117.513,119.355 117.828 C 119.476 118.143,119.823 118.400,120.125 118.400 C 120.428 118.400,121.002 118.760,121.400 119.200 C 121.798 119.640,122.321 120.001,122.562 120.002 C 122.803 120.003,123.670 120.619,124.489 121.371 C 125.308 122.124,126.319 122.847,126.736 122.980 C 127.153 123.112,127.816 123.576,128.209 124.010 C 128.602 124.445,129.172 124.800,129.475 124.800 C 129.777 124.800,130.129 125.070,130.255 125.400 C 130.382 125.730,130.691 126.000,130.943 126.000 C 131.364 126.001,132.775 127.021,134.500 128.571 C 134.885 128.917,135.399 129.200,135.642 129.200 C 136.061 129.200,137.849 130.495,139.234 131.802 C 139.582 132.131,140.032 132.412,140.234 132.427 C 140.435 132.441,141.410 133.070,142.400 133.825 C 143.390 134.579,144.605 135.373,145.100 135.589 C 145.595 135.804,146.000 136.136,146.000 136.326 C 146.000 136.516,146.457 136.880,147.015 137.134 C 148.036 137.599,148.606 138.009,150.029 139.300 C 150.453 139.685,150.925 140.000,151.078 140.000 C 151.426 140.000,154.512 142.076,154.846 142.535 C 154.981 142.721,155.457 143.081,155.904 143.336 C 157.767 144.399,161.423 147.008,161.720 147.486 C 161.896 147.769,162.242 148.000,162.488 148.000 C 162.735 148.000,163.267 148.299,163.671 148.664 C 164.075 149.030,164.746 149.525,165.161 149.764 C 166.159 150.340,170.545 153.313,170.800 153.587 C 170.910 153.706,171.810 154.336,172.800 154.988 C 174.701 156.241,175.248 156.661,176.700 157.981 C 177.195 158.432,177.799 158.800,178.042 158.800 C 178.451 158.800,180.012 159.904,181.700 161.385 C 182.085 161.723,182.564 162.000,182.764 162.000 C 182.964 162.000,184.005 162.675,185.076 163.500 C 188.154 165.871,189.536 166.800,189.980 166.800 C 190.207 166.800,190.618 167.160,190.893 167.600 C 191.168 168.040,191.625 168.400,191.909 168.400 C 192.193 168.400,192.529 168.670,192.655 169.000 C 192.782 169.330,193.123 169.600,193.412 169.600 C 193.702 169.600,194.473 170.050,195.127 170.600 C 195.781 171.150,196.506 171.600,196.738 171.600 C 196.970 171.600,197.304 171.825,197.480 172.101 C 198.282 173.355,199.944 173.778,201.306 173.073 C 202.791 172.305,206.297 169.899,207.234 169.005 C 207.582 168.672,208.068 168.400,208.314 168.400 C 208.559 168.400,208.904 168.154,209.080 167.854 C 209.256 167.554,209.940 167.012,210.600 166.649 C 212.700 165.495,213.375 165.018,213.917 164.300 C 214.207 163.915,214.677 163.600,214.961 163.600 C 215.244 163.600,215.802 163.240,216.200 162.800 C 216.598 162.360,217.172 162.000,217.475 162.000 C 217.777 162.000,218.126 161.737,218.250 161.415 C 218.373 161.094,218.835 160.716,219.276 160.576 C 219.718 160.436,220.421 159.979,220.839 159.561 C 221.258 159.142,221.870 158.800,222.200 158.800 C 222.530 158.800,222.800 158.616,222.800 158.390 C 222.800 158.165,223.250 157.809,223.800 157.600 C 224.350 157.391,224.800 157.026,224.800 156.789 C 224.800 156.553,225.414 156.103,226.163 155.790 C 226.913 155.476,227.588 155.080,227.663 154.910 C 227.739 154.739,229.150 153.703,230.800 152.607 C 232.450 151.510,233.890 150.514,234.000 150.393 C 234.175 150.200,237.763 147.731,239.511 146.600 C 239.852 146.380,240.461 145.885,240.865 145.500 C 241.269 145.115,241.861 144.800,242.180 144.800 C 242.499 144.800,242.904 144.571,243.080 144.290 C 243.369 143.830,244.598 142.893,246.353 141.795 C 248.173 140.657,249.422 139.789,249.609 139.533 C 249.882 139.160,252.773 137.200,253.050 137.200 C 253.169 137.200,254.016 136.594,254.933 135.853 C 255.850 135.112,257.050 134.276,257.600 133.994 C 258.150 133.713,258.744 133.239,258.920 132.942 C 259.096 132.644,259.492 132.400,259.800 132.400 C 260.108 132.400,260.504 132.174,260.680 131.899 C 261.118 131.212,264.132 129.200,264.722 129.200 C 264.985 129.200,265.200 129.038,265.200 128.840 C 265.200 128.506,266.839 127.339,269.074 126.078 C 269.583 125.791,270.000 125.386,270.000 125.178 C 270.000 124.970,270.242 124.800,270.538 124.800 C 270.834 124.800,271.398 124.445,271.791 124.010 C 272.184 123.576,272.860 123.108,273.292 122.971 C 273.725 122.833,274.408 122.424,274.811 122.061 C 276.128 120.871,276.658 120.494,277.938 119.832 C 278.632 119.473,279.200 119.004,279.200 118.790 C 279.200 118.575,279.442 118.400,279.738 118.400 C 280.034 118.400,280.602 118.040,281.000 117.600 C 281.398 117.160,281.938 116.800,282.200 116.800 C 282.462 116.800,283.002 116.440,283.400 116.000 C 283.798 115.560,284.357 115.200,284.642 115.200 C 284.927 115.200,285.304 114.974,285.480 114.699 C 285.836 114.142,288.884 112.000,289.322 112.000 C 289.475 112.000,290.005 111.632,290.500 111.181 C 290.995 110.731,291.675 110.112,292.011 109.805 C 292.347 109.499,293.112 109.062,293.711 108.834 C 294.310 108.606,294.800 108.256,294.800 108.057 C 294.800 107.857,295.115 107.587,295.500 107.456 C 295.885 107.326,297.010 106.580,298.000 105.800 C 298.990 105.020,300.115 104.274,300.500 104.144 C 300.885 104.013,301.200 103.743,301.200 103.543 C 301.200 103.344,301.605 103.004,302.100 102.789 C 302.595 102.573,303.810 101.779,304.800 101.025 C 305.790 100.270,306.825 99.641,307.100 99.627 C 307.375 99.612,307.600 99.425,307.600 99.210 C 307.600 98.996,308.185 98.522,308.900 98.156 C 309.615 97.791,310.344 97.246,310.520 96.946 C 310.696 96.646,311.061 96.400,311.331 96.400 C 311.601 96.400,312.130 96.040,312.507 95.600 C 312.884 95.160,313.436 94.800,313.734 94.800 C 314.032 94.800,314.602 94.440,315.000 94.000 C 315.398 93.560,315.966 93.200,316.262 93.200 C 316.558 93.200,316.800 93.044,316.800 92.852 C 316.800 92.661,317.880 91.828,319.200 91.000 C 320.520 90.172,321.600 89.339,321.600 89.148 C 321.600 88.956,321.792 88.800,322.027 88.800 C 322.261 88.800,323.043 88.350,323.764 87.800 C 324.486 87.250,325.264 86.800,325.495 86.800 C 325.726 86.800,326.018 86.530,326.145 86.200 C 326.271 85.870,326.642 85.600,326.968 85.600 C 327.294 85.600,327.704 85.373,327.880 85.096 C 328.239 84.530,331.412 82.400,331.895 82.400 C 332.067 82.400,332.432 82.040,332.707 81.600 C 332.982 81.160,333.447 80.800,333.741 80.800 C 334.035 80.800,334.602 80.440,335.000 80.000 C 335.398 79.560,335.957 79.200,336.242 79.200 C 336.527 79.200,336.904 78.974,337.080 78.699 C 337.436 78.142,340.484 76.000,340.922 76.000 C 341.075 76.000,341.541 75.685,341.958 75.300 C 343.808 73.591,344.909 72.800,345.434 72.800 C 345.745 72.800,346.000 72.656,346.000 72.480 C 346.000 72.304,347.485 71.188,349.300 70.001 C 351.115 68.813,352.744 67.607,352.920 67.321 C 353.096 67.034,353.473 66.800,353.758 66.800 C 354.043 66.800,354.602 66.440,355.000 66.000 C 355.398 65.560,355.886 65.200,356.083 65.200 C 356.694 65.200,359.200 63.029,359.200 62.500 C 359.200 62.101,327.133 62.000,200.200 62.000 C 43.315 62.000,41.200 62.010,41.200 62.773 M153.400 264.619 C 152.740 265.165,151.915 265.880,151.566 266.206 C 151.218 266.533,150.732 266.800,150.486 266.800 C 150.241 266.800,149.896 267.044,149.720 267.342 C 149.544 267.639,148.981 268.103,148.468 268.373 C 147.376 268.947,146.140 269.918,145.254 270.900 C 144.906 271.285,144.401 271.600,144.131 271.600 C 143.861 271.600,143.496 271.825,143.320 272.100 C 143.144 272.375,142.640 272.829,142.200 273.109 C 141.760 273.389,140.815 273.992,140.100 274.449 C 139.385 274.905,138.800 275.441,138.800 275.640 C 138.800 275.838,138.540 276.000,138.223 276.000 C 137.905 276.000,137.410 276.318,137.123 276.706 C 136.835 277.095,136.105 277.631,135.500 277.898 C 134.895 278.164,134.400 278.567,134.400 278.791 C 134.400 279.016,134.132 279.200,133.803 279.200 C 133.475 279.200,132.982 279.560,132.707 280.000 C 132.432 280.440,132.054 280.800,131.867 280.800 C 131.680 280.800,131.048 281.169,130.463 281.620 C 126.538 284.649,123.057 287.200,122.847 287.202 C 122.711 287.203,121.950 287.788,121.155 288.502 C 119.686 289.822,119.209 290.174,116.900 291.649 C 116.185 292.105,115.600 292.641,115.600 292.840 C 115.600 293.038,115.332 293.200,115.003 293.200 C 114.675 293.200,114.182 293.560,113.907 294.000 C 113.632 294.440,113.205 294.800,112.957 294.800 C 112.365 294.800,107.200 298.791,107.200 299.248 C 107.200 299.442,106.946 299.600,106.636 299.600 C 106.326 299.600,105.161 300.320,104.048 301.200 C 102.934 302.080,101.928 302.800,101.812 302.800 C 101.695 302.800,101.285 303.081,100.900 303.424 C 99.370 304.787,94.073 308.800,93.803 308.800 C 93.550 308.800,92.211 309.790,90.415 311.306 C 90.093 311.578,89.532 311.980,89.168 312.200 C 87.557 313.173,86.175 314.220,85.880 314.690 C 85.704 314.971,85.306 315.200,84.994 315.200 C 84.683 315.200,84.235 315.560,84.000 316.000 C 83.765 316.440,83.336 316.800,83.048 316.800 C 82.760 316.800,82.198 317.160,81.800 317.600 C 81.402 318.040,80.840 318.400,80.552 318.400 C 80.264 318.400,79.835 318.760,79.600 319.200 C 79.365 319.640,78.903 320.000,78.573 320.000 C 78.244 320.000,77.871 320.270,77.745 320.600 C 77.618 320.930,77.309 321.202,77.057 321.205 C 76.548 321.211,74.770 322.523,73.402 323.900 C 72.910 324.395,72.313 324.800,72.074 324.800 C 71.835 324.800,71.496 325.025,71.320 325.300 C 71.144 325.575,70.640 326.029,70.200 326.309 C 69.760 326.589,68.815 327.192,68.100 327.649 C 67.385 328.105,66.800 328.641,66.800 328.840 C 66.800 329.038,66.601 329.200,66.358 329.200 C 66.115 329.200,65.350 329.648,64.658 330.196 C 63.966 330.745,62.978 331.510,62.463 331.896 C 60.896 333.073,60.000 334.118,59.996 334.775 C 59.993 335.119,59.880 336.075,59.743 336.900 L 59.495 338.400 199.848 338.301 C 277.041 338.247,311.985 338.156,277.500 338.100 L 214.800 337.998 214.800 337.156 C 214.800 336.694,214.395 335.828,213.900 335.232 C 213.405 334.636,212.640 333.651,212.200 333.044 C 211.760 332.436,210.995 331.493,210.500 330.949 C 210.005 330.404,209.600 329.788,209.600 329.579 C 209.600 329.371,209.330 329.200,209.000 329.200 C 208.670 329.200,208.400 329.025,208.400 328.812 C 208.400 328.289,205.923 324.800,205.552 324.800 C 205.391 324.800,205.200 324.549,205.129 324.242 C 205.058 323.934,204.420 322.989,203.710 322.142 C 203.001 321.294,201.561 319.512,200.510 318.183 C 199.460 316.853,198.374 315.503,198.098 315.183 C 197.822 314.862,196.790 313.520,195.806 312.200 C 194.821 310.880,193.382 309.122,192.608 308.293 C 191.833 307.465,191.200 306.681,191.200 306.551 C 191.200 306.421,190.744 305.750,190.186 305.058 C 189.628 304.366,188.863 303.418,188.486 302.951 C 188.109 302.484,187.530 301.704,187.200 301.216 C 186.870 300.728,186.240 299.929,185.800 299.439 C 185.360 298.950,184.640 298.034,184.200 297.405 C 183.760 296.776,182.995 295.866,182.500 295.385 C 182.005 294.903,181.600 294.344,181.600 294.143 C 181.600 293.942,181.285 293.496,180.900 293.151 C 180.515 292.807,179.930 292.113,179.600 291.610 C 179.068 290.800,177.869 289.283,176.000 287.058 C 175.670 286.665,175.085 286.046,174.700 285.683 C 174.315 285.320,174.000 284.862,174.000 284.667 C 174.000 284.471,173.280 283.451,172.400 282.400 C 171.520 281.349,170.800 280.355,170.800 280.192 C 170.800 280.028,170.209 279.333,169.487 278.647 C 168.765 277.961,167.571 276.465,166.834 275.323 C 166.097 274.180,165.248 273.151,164.947 273.035 C 164.646 272.920,164.400 272.549,164.400 272.213 C 164.400 271.876,164.255 271.600,164.077 271.600 C 163.899 271.600,163.224 270.865,162.577 269.967 C 161.930 269.068,161.040 267.911,160.600 267.394 C 160.160 266.878,159.274 265.813,158.630 265.027 C 157.164 263.238,155.249 263.088,153.400 264.619 " stroke="none" fill="#e9e9e9" fill-rule="evenodd"></path><path id="path2" d="M39.600 62.526 C 39.600 63.229,41.624 64.983,45.234 67.407 C 46.865 68.502,48.380 69.547,48.600 69.730 C 49.085 70.132,52.079 72.215,55.600 74.601 C 57.030 75.569,59.460 77.272,61.000 78.384 C 62.540 79.496,65.330 81.433,67.200 82.688 C 69.070 83.943,70.690 85.075,70.800 85.204 C 71.038 85.484,73.503 87.234,74.456 87.800 C 74.827 88.020,76.000 88.817,77.065 89.572 C 78.129 90.326,80.260 91.810,81.800 92.870 C 83.340 93.930,85.500 95.433,86.600 96.211 C 87.700 96.990,90.040 98.618,91.800 99.831 C 93.560 101.043,95.810 102.645,96.800 103.391 C 97.790 104.137,98.816 104.759,99.080 104.773 C 99.344 104.788,99.704 105.031,99.880 105.314 C 100.056 105.597,101.190 106.495,102.400 107.309 C 104.335 108.611,107.404 110.725,109.200 111.992 C 113.590 115.091,116.136 116.857,119.992 119.478 C 122.517 121.195,124.872 122.870,125.225 123.200 C 125.578 123.530,126.661 124.292,127.633 124.894 C 128.605 125.496,131.290 127.336,133.600 128.982 C 135.910 130.629,139.780 133.336,142.200 134.997 C 144.620 136.659,148.130 139.090,150.000 140.400 C 151.870 141.709,153.740 143.010,154.156 143.290 C 154.571 143.571,155.381 144.160,155.956 144.600 C 157.760 145.982,159.559 147.200,159.796 147.200 C 159.921 147.200,160.911 147.875,161.996 148.700 C 164.821 150.848,167.920 153.055,170.000 154.398 C 170.990 155.037,172.700 156.192,173.800 156.965 C 174.900 157.737,176.140 158.601,176.556 158.884 C 176.971 159.168,177.781 159.766,178.356 160.213 C 178.930 160.660,180.120 161.507,181.000 162.095 C 181.880 162.683,184.670 164.608,187.200 166.373 C 189.730 168.138,193.284 170.592,195.099 171.827 C 196.913 173.062,198.498 174.236,198.622 174.436 C 199.175 175.330,202.098 174.364,203.600 172.790 C 203.710 172.675,205.600 171.357,207.800 169.861 C 210.000 168.365,213.330 166.081,215.200 164.785 C 217.070 163.489,218.940 162.198,219.356 161.915 C 219.771 161.632,220.581 161.035,221.156 160.589 C 221.730 160.143,223.190 159.119,224.400 158.314 C 225.610 157.508,228.130 155.772,230.000 154.454 C 231.870 153.137,235.200 150.835,237.400 149.339 C 239.600 147.843,241.490 146.521,241.600 146.400 C 241.786 146.196,242.868 145.437,245.017 144.000 C 245.855 143.439,246.750 142.813,251.441 139.500 C 252.453 138.785,253.573 138.020,253.929 137.800 C 254.285 137.580,255.842 136.499,257.388 135.398 C 258.935 134.297,261.010 132.857,262.000 132.199 C 262.990 131.541,263.890 130.886,264.000 130.744 C 264.110 130.602,265.640 129.528,267.400 128.357 C 269.160 127.187,270.838 125.997,271.129 125.714 C 271.419 125.431,271.811 125.200,272.000 125.200 C 272.189 125.200,272.581 124.974,272.871 124.697 C 273.409 124.185,273.856 123.862,277.400 121.421 C 278.500 120.663,280.885 118.999,282.701 117.722 C 286.740 114.881,293.699 110.069,297.193 107.703 C 298.619 106.737,299.879 105.820,299.993 105.667 C 300.107 105.513,301.550 104.497,303.200 103.411 C 304.850 102.324,306.470 101.197,306.800 100.907 C 307.130 100.618,308.030 99.966,308.800 99.459 C 312.694 96.896,321.151 90.981,322.225 90.069 C 322.459 89.871,323.089 89.477,323.625 89.194 C 324.161 88.912,324.690 88.572,324.800 88.439 C 324.910 88.306,325.810 87.662,326.800 87.007 C 327.790 86.353,329.320 85.273,330.200 84.608 C 331.080 83.944,332.097 83.220,332.459 83.000 C 332.822 82.780,333.902 82.049,334.859 81.376 C 335.817 80.703,337.860 79.276,339.400 78.204 C 340.940 77.133,342.290 76.133,342.400 75.984 C 342.510 75.834,343.140 75.413,343.800 75.047 C 344.460 74.682,346.620 73.230,348.600 71.820 C 350.580 70.410,353.460 68.393,355.000 67.336 C 359.620 64.167,361.569 62.000,359.800 62.000 C 359.470 62.000,359.200 62.225,359.200 62.500 C 359.200 63.029,356.694 65.200,356.083 65.200 C 355.886 65.200,355.398 65.560,355.000 66.000 C 354.602 66.440,354.043 66.800,353.758 66.800 C 353.473 66.800,353.096 67.034,352.920 67.321 C 352.744 67.607,351.115 68.813,349.300 70.001 C 347.485 71.188,346.000 72.304,346.000 72.480 C 346.000 72.656,345.745 72.800,345.434 72.800 C 344.909 72.800,343.808 73.591,341.958 75.300 C 341.541 75.685,341.075 76.000,340.922 76.000 C 340.484 76.000,337.436 78.142,337.080 78.699 C 336.904 78.974,336.527 79.200,336.242 79.200 C 335.957 79.200,335.398 79.560,335.000 80.000 C 334.602 80.440,334.035 80.800,333.741 80.800 C 333.447 80.800,332.982 81.160,332.707 81.600 C 332.432 82.040,332.067 82.400,331.895 82.400 C 331.412 82.400,328.239 84.530,327.880 85.096 C 327.704 85.373,327.294 85.600,326.968 85.600 C 326.642 85.600,326.271 85.870,326.145 86.200 C 326.018 86.530,325.726 86.800,325.495 86.800 C 325.264 86.800,324.486 87.250,323.764 87.800 C 323.043 88.350,322.261 88.800,322.027 88.800 C 321.792 88.800,321.600 88.956,321.600 89.148 C 321.600 89.339,320.520 90.172,319.200 91.000 C 317.880 91.828,316.800 92.661,316.800 92.852 C 316.800 93.044,316.558 93.200,316.262 93.200 C 315.966 93.200,315.398 93.560,315.000 94.000 C 314.602 94.440,314.032 94.800,313.734 94.800 C 313.436 94.800,312.884 95.160,312.507 95.600 C 312.130 96.040,311.601 96.400,311.331 96.400 C 311.061 96.400,310.696 96.646,310.520 96.946 C 310.344 97.246,309.615 97.791,308.900 98.156 C 308.185 98.522,307.600 98.996,307.600 99.210 C 307.600 99.425,307.375 99.612,307.100 99.627 C 306.825 99.641,305.790 100.270,304.800 101.025 C 303.810 101.779,302.595 102.573,302.100 102.789 C 301.605 103.004,301.200 103.344,301.200 103.543 C 301.200 103.743,300.885 104.013,300.500 104.144 C 300.115 104.274,298.990 105.020,298.000 105.800 C 297.010 106.580,295.885 107.326,295.500 107.456 C 295.115 107.587,294.800 107.857,294.800 108.057 C 294.800 108.256,294.310 108.606,293.711 108.834 C 293.112 109.062,292.347 109.499,292.011 109.805 C 291.675 110.112,290.995 110.731,290.500 111.181 C 290.005 111.632,289.475 112.000,289.322 112.000 C 288.884 112.000,285.836 114.142,285.480 114.699 C 285.304 114.974,284.927 115.200,284.642 115.200 C 284.357 115.200,283.798 115.560,283.400 116.000 C 283.002 116.440,282.462 116.800,282.200 116.800 C 281.938 116.800,281.398 117.160,281.000 117.600 C 280.602 118.040,280.034 118.400,279.738 118.400 C 279.442 118.400,279.200 118.575,279.200 118.790 C 279.200 119.004,278.632 119.473,277.938 119.832 C 276.658 120.494,276.128 120.871,274.811 122.061 C 274.408 122.424,273.725 122.833,273.292 122.971 C 272.860 123.108,272.184 123.576,271.791 124.010 C 271.398 124.445,270.834 124.800,270.538 124.800 C 270.242 124.800,270.000 124.970,270.000 125.178 C 270.000 125.386,269.583 125.791,269.074 126.078 C 266.839 127.339,265.200 128.506,265.200 128.840 C 265.200 129.038,264.985 129.200,264.722 129.200 C 264.132 129.200,261.118 131.212,260.680 131.899 C 260.504 132.174,260.108 132.400,259.800 132.400 C 259.492 132.400,259.096 132.644,258.920 132.942 C 258.744 133.239,258.150 133.713,257.600 133.994 C 257.050 134.276,255.850 135.112,254.933 135.853 C 254.016 136.594,253.169 137.200,253.050 137.200 C 252.773 137.200,249.882 139.160,249.609 139.533 C 249.422 139.789,248.173 140.657,246.353 141.795 C 244.598 142.893,243.369 143.830,243.080 144.290 C 242.904 144.571,242.499 144.800,242.180 144.800 C 241.861 144.800,241.269 145.115,240.865 145.500 C 240.461 145.885,239.852 146.380,239.511 146.600 C 237.763 147.731,234.175 150.200,234.000 150.393 C 233.890 150.514,232.450 151.510,230.800 152.607 C 229.150 153.703,227.739 154.739,227.663 154.910 C 227.588 155.080,226.913 155.476,226.163 155.790 C 225.414 156.103,224.800 156.553,224.800 156.789 C 224.800 157.026,224.350 157.391,223.800 157.600 C 223.250 157.809,222.800 158.165,222.800 158.390 C 222.800 158.616,222.530 158.800,222.200 158.800 C 221.870 158.800,221.258 159.142,220.839 159.561 C 220.421 159.979,219.718 160.436,219.276 160.576 C 218.835 160.716,218.373 161.094,218.250 161.415 C 218.126 161.737,217.777 162.000,217.475 162.000 C 217.172 162.000,216.598 162.360,216.200 162.800 C 215.802 163.240,215.244 163.600,214.961 163.600 C 214.677 163.600,214.207 163.915,213.917 164.300 C 213.375 165.018,212.700 165.495,210.600 166.649 C 209.940 167.012,209.256 167.554,209.080 167.854 C 208.904 168.154,208.559 168.400,208.314 168.400 C 208.068 168.400,207.582 168.672,207.234 169.005 C 206.297 169.899,202.791 172.305,201.306 173.073 C 199.944 173.778,198.282 173.355,197.480 172.101 C 197.304 171.825,196.970 171.600,196.738 171.600 C 196.506 171.600,195.781 171.150,195.127 170.600 C 194.473 170.050,193.702 169.600,193.412 169.600 C 193.123 169.600,192.782 169.330,192.655 169.000 C 192.529 168.670,192.193 168.400,191.909 168.400 C 191.625 168.400,191.168 168.040,190.893 167.600 C 190.618 167.160,190.207 166.800,189.980 166.800 C 189.536 166.800,188.154 165.871,185.076 163.500 C 184.005 162.675,182.964 162.000,182.764 162.000 C 182.564 162.000,182.085 161.723,181.700 161.385 C 180.012 159.904,178.451 158.800,178.042 158.800 C 177.799 158.800,177.195 158.432,176.700 157.981 C 175.248 156.661,174.701 156.241,172.800 154.988 C 171.810 154.336,170.910 153.706,170.800 153.587 C 170.545 153.313,166.159 150.340,165.161 149.764 C 164.746 149.525,164.075 149.030,163.671 148.664 C 163.267 148.299,162.735 148.000,162.488 148.000 C 162.242 148.000,161.896 147.769,161.720 147.486 C 161.423 147.008,157.767 144.399,155.904 143.336 C 155.457 143.081,154.981 142.721,154.846 142.535 C 154.512 142.076,151.426 140.000,151.078 140.000 C 150.925 140.000,150.453 139.685,150.029 139.300 C 148.606 138.009,148.036 137.599,147.015 137.134 C 146.457 136.880,146.000 136.516,146.000 136.326 C 146.000 136.136,145.595 135.804,145.100 135.589 C 144.605 135.373,143.390 134.579,142.400 133.825 C 141.410 133.070,140.435 132.441,140.234 132.427 C 140.032 132.412,139.582 132.131,139.234 131.802 C 137.849 130.495,136.061 129.200,135.642 129.200 C 135.399 129.200,134.885 128.917,134.500 128.571 C 132.775 127.021,131.364 126.001,130.943 126.000 C 130.691 126.000,130.382 125.730,130.255 125.400 C 130.129 125.070,129.777 124.800,129.475 124.800 C 129.172 124.800,128.602 124.445,128.209 124.010 C 127.816 123.576,127.153 123.112,126.736 122.980 C 126.319 122.847,125.308 122.124,124.489 121.371 C 123.670 120.619,122.803 120.003,122.562 120.002 C 122.321 120.001,121.798 119.640,121.400 119.200 C 121.002 118.760,120.428 118.400,120.125 118.400 C 119.823 118.400,119.476 118.143,119.355 117.828 C 119.235 117.513,118.610 117.073,117.968 116.849 C 117.326 116.625,116.800 116.264,116.800 116.048 C 116.800 115.831,116.395 115.526,115.900 115.370 C 115.405 115.213,114.765 114.751,114.477 114.343 C 114.190 113.934,113.735 113.600,113.466 113.600 C 113.198 113.600,112.670 113.240,112.293 112.800 C 111.916 112.360,111.265 112.000,110.847 112.000 C 110.428 112.000,109.995 111.764,109.885 111.476 C 109.774 111.188,108.360 110.066,106.742 108.983 C 105.124 107.900,103.689 106.859,103.554 106.670 C 103.419 106.482,102.940 106.119,102.489 105.864 C 102.039 105.609,100.836 104.815,99.815 104.100 C 98.795 103.385,97.798 102.800,97.600 102.800 C 97.402 102.800,97.096 102.556,96.920 102.258 C 96.744 101.961,96.161 101.486,95.625 101.204 C 95.089 100.922,94.459 100.539,94.225 100.352 C 93.991 100.165,93.234 99.559,92.542 99.006 C 91.850 98.453,91.113 98.000,90.904 98.000 C 90.695 98.000,90.198 97.640,89.800 97.200 C 89.402 96.760,88.843 96.400,88.558 96.400 C 88.273 96.400,87.896 96.174,87.720 95.899 C 87.282 95.212,84.268 93.200,83.678 93.200 C 83.415 93.200,83.200 92.950,83.200 92.643 C 83.200 92.337,82.750 91.974,82.200 91.836 C 81.650 91.698,81.200 91.430,81.200 91.241 C 81.200 91.052,80.660 90.673,80.000 90.400 C 79.340 90.127,78.800 89.740,78.800 89.542 C 78.800 89.343,78.395 89.004,77.900 88.789 C 77.405 88.573,76.190 87.779,75.200 87.025 C 74.210 86.270,73.175 85.641,72.900 85.627 C 72.625 85.612,72.400 85.433,72.400 85.228 C 72.400 84.892,69.024 82.400,68.568 82.400 C 68.463 82.400,67.466 81.680,66.352 80.800 C 65.239 79.920,64.134 79.200,63.898 79.200 C 63.661 79.200,63.182 78.931,62.834 78.602 C 61.262 77.119,59.631 76.000,59.042 76.000 C 58.689 76.000,58.400 75.773,58.400 75.495 C 58.400 75.217,58.056 74.812,57.635 74.595 C 56.236 73.873,50.090 69.590,49.592 68.990 C 49.323 68.666,48.882 68.400,48.613 68.400 C 48.344 68.400,47.798 68.040,47.400 67.600 C 47.002 67.160,46.428 66.800,46.125 66.800 C 45.823 66.800,45.476 66.543,45.355 66.228 C 45.235 65.913,44.610 65.473,43.968 65.249 C 43.326 65.025,42.800 64.664,42.800 64.448 C 42.800 64.231,42.440 63.940,42.000 63.800 C 41.560 63.660,41.200 63.198,41.200 62.773 C 41.200 62.267,40.924 62.000,40.400 62.000 C 39.960 62.000,39.600 62.237,39.600 62.526 M26.979 67.166 C 27.103 67.367,26.979 67.623,26.702 67.734 C 26.399 67.856,26.478 67.949,26.900 67.968 C 27.285 67.986,27.600 67.730,27.600 67.400 C 27.600 67.070,27.409 66.800,27.176 66.800 C 26.943 66.800,26.855 66.965,26.979 67.166 M17.304 79.819 C 16.989 80.161,16.953 80.448,17.207 80.604 C 17.426 80.740,17.717 80.562,17.852 80.208 C 18.183 79.347,17.914 79.157,17.304 79.819 M15.470 86.161 C 15.245 86.749,15.503 87.200,16.067 87.200 C 16.250 87.200,16.400 86.840,16.400 86.400 C 16.400 85.483,15.791 85.326,15.470 86.161 M383.600 86.467 C 383.600 86.947,383.892 87.200,384.449 87.200 C 385.114 87.200,385.201 87.084,384.852 86.663 C 384.607 86.368,384.495 86.038,384.603 85.930 C 384.712 85.822,384.530 85.733,384.200 85.733 C 383.870 85.733,383.600 86.063,383.600 86.467 M58.400 235.200 C 58.400 324.356,58.478 338.400,58.971 338.400 C 59.363 338.400,59.628 337.717,59.814 336.230 C 60.081 334.092,60.540 333.340,62.463 331.896 C 62.978 331.510,63.966 330.745,64.658 330.196 C 65.350 329.648,66.115 329.200,66.358 329.200 C 66.601 329.200,66.800 329.038,66.800 328.840 C 66.800 328.641,67.385 328.105,68.100 327.649 C 68.815 327.192,69.760 326.589,70.200 326.309 C 70.640 326.029,71.144 325.575,71.320 325.300 C 71.496 325.025,71.835 324.800,72.074 324.800 C 72.313 324.800,72.910 324.395,73.402 323.900 C 74.770 322.523,76.548 321.211,77.057 321.205 C 77.309 321.202,77.618 320.930,77.745 320.600 C 77.871 320.270,78.244 320.000,78.573 320.000 C 78.903 320.000,79.365 319.640,79.600 319.200 C 79.835 318.760,80.264 318.400,80.552 318.400 C 80.840 318.400,81.402 318.040,81.800 317.600 C 82.198 317.160,82.760 316.800,83.048 316.800 C 83.336 316.800,83.765 316.440,84.000 316.000 C 84.235 315.560,84.683 315.200,84.994 315.200 C 85.306 315.200,85.704 314.971,85.880 314.690 C 86.175 314.220,87.557 313.173,89.168 312.200 C 89.532 311.980,90.093 311.578,90.415 311.306 C 92.211 309.790,93.550 308.800,93.803 308.800 C 94.073 308.800,99.370 304.787,100.900 303.424 C 101.285 303.081,101.695 302.800,101.812 302.800 C 101.928 302.800,102.934 302.080,104.048 301.200 C 105.161 300.320,106.326 299.600,106.636 299.600 C 106.946 299.600,107.200 299.442,107.200 299.248 C 107.200 298.791,112.365 294.800,112.957 294.800 C 113.205 294.800,113.632 294.440,113.907 294.000 C 114.182 293.560,114.675 293.200,115.003 293.200 C 115.332 293.200,115.600 293.038,115.600 292.840 C 115.600 292.641,116.185 292.105,116.900 291.649 C 119.209 290.174,119.686 289.822,121.155 288.502 C 121.950 287.788,122.711 287.203,122.847 287.202 C 123.057 287.200,126.538 284.649,130.463 281.620 C 131.048 281.169,131.680 280.800,131.867 280.800 C 132.054 280.800,132.432 280.440,132.707 280.000 C 132.982 279.560,133.475 279.200,133.803 279.200 C 134.132 279.200,134.400 279.016,134.400 278.791 C 134.400 278.567,134.895 278.164,135.500 277.898 C 136.105 277.631,136.835 277.095,137.123 276.706 C 137.410 276.318,137.905 276.000,138.223 276.000 C 138.540 276.000,138.800 275.838,138.800 275.640 C 138.800 275.441,139.385 274.905,140.100 274.449 C 140.815 273.992,141.760 273.389,142.200 273.109 C 142.640 272.829,143.144 272.375,143.320 272.100 C 143.496 271.825,143.861 271.600,144.131 271.600 C 144.401 271.600,144.906 271.285,145.254 270.900 C 146.140 269.918,147.376 268.947,148.468 268.373 C 148.981 268.103,149.544 267.639,149.720 267.342 C 149.896 267.044,150.241 266.800,150.486 266.800 C 150.732 266.800,151.218 266.531,151.566 266.202 C 154.875 263.080,156.776 262.764,158.630 265.027 C 159.274 265.813,160.160 266.878,160.600 267.394 C 161.040 267.911,161.930 269.068,162.577 269.967 C 163.224 270.865,163.899 271.600,164.077 271.600 C 164.255 271.600,164.400 271.876,164.400 272.213 C 164.400 272.549,164.646 272.920,164.947 273.035 C 165.248 273.151,166.097 274.180,166.834 275.323 C 167.571 276.465,168.765 277.961,169.487 278.647 C 170.209 279.333,170.800 280.028,170.800 280.192 C 170.800 280.355,171.520 281.349,172.400 282.400 C 173.280 283.451,174.000 284.471,174.000 284.667 C 174.000 284.862,174.315 285.320,174.700 285.683 C 175.085 286.046,175.670 286.665,176.000 287.058 C 177.869 289.283,179.068 290.800,179.600 291.610 C 179.930 292.113,180.515 292.807,180.900 293.151 C 181.285 293.496,181.600 293.942,181.600 294.143 C 181.600 294.344,182.005 294.903,182.500 295.385 C 182.995 295.866,183.760 296.776,184.200 297.405 C 184.640 298.034,185.360 298.950,185.800 299.439 C 186.240 299.929,186.870 300.728,187.200 301.216 C 187.530 301.704,188.109 302.484,188.486 302.951 C 188.863 303.418,189.628 304.366,190.186 305.058 C 190.744 305.750,191.200 306.421,191.200 306.551 C 191.200 306.681,191.833 307.465,192.608 308.293 C 193.382 309.122,194.821 310.880,195.806 312.200 C 196.790 313.520,197.822 314.862,198.098 315.183 C 198.374 315.503,199.460 316.853,200.510 318.183 C 201.561 319.512,203.001 321.294,203.710 322.142 C 204.420 322.989,205.058 323.934,205.129 324.242 C 205.200 324.549,205.391 324.800,205.552 324.800 C 205.923 324.800,208.400 328.289,208.400 328.812 C 208.400 329.025,208.670 329.200,209.000 329.200 C 209.330 329.200,209.600 329.371,209.600 329.579 C 209.600 329.788,210.005 330.404,210.500 330.949 C 210.995 331.493,211.760 332.436,212.200 333.044 C 212.640 333.651,213.405 334.636,213.900 335.232 C 214.395 335.828,214.800 336.695,214.800 337.158 L 214.800 338.000 276.950 338.000 C 311.133 338.000,339.663 338.113,340.350 338.250 L 341.600 338.500 341.600 235.250 C 341.600 152.913,341.499 132.001,341.100 132.007 C 340.498 132.015,338.433 133.237,335.369 135.400 C 334.122 136.280,332.694 137.270,332.195 137.600 C 331.056 138.354,328.583 140.129,325.788 142.200 C 324.600 143.080,322.716 144.430,321.601 145.200 C 320.486 145.970,318.005 147.714,316.087 149.076 C 314.169 150.437,312.060 151.930,311.400 152.393 C 310.740 152.856,309.265 153.901,308.123 154.717 C 306.981 155.533,305.134 156.830,304.020 157.600 C 302.133 158.904,299.525 160.782,298.600 161.502 C 298.380 161.673,297.210 162.488,296.000 163.312 C 293.124 165.270,288.413 168.609,287.400 169.407 C 286.960 169.754,285.790 170.576,284.800 171.234 C 283.810 171.892,282.010 173.152,280.800 174.033 C 279.590 174.914,277.970 176.067,277.200 176.595 C 276.430 177.123,274.900 178.202,273.800 178.992 C 272.700 179.782,270.810 181.097,269.600 181.914 C 268.390 182.731,267.220 183.537,267.000 183.705 C 265.467 184.873,263.344 186.404,261.600 187.600 C 260.477 188.370,258.893 189.515,258.079 190.144 C 257.266 190.773,255.430 192.080,254.000 193.048 C 250.430 195.464,247.676 197.434,245.923 198.827 C 245.111 199.472,244.344 200.000,244.217 200.000 C 244.091 200.000,242.689 200.945,241.102 202.100 C 236.520 205.436,236.159 205.692,233.101 207.787 C 231.505 208.880,229.461 210.365,228.559 211.087 C 227.656 211.809,226.733 212.400,226.508 212.400 C 226.282 212.400,225.877 212.666,225.608 212.990 C 225.338 213.315,223.651 214.578,221.859 215.797 C 217.001 219.101,213.076 221.876,212.400 222.485 C 212.070 222.782,210.990 223.560,210.000 224.213 C 207.979 225.547,202.058 229.757,201.317 230.389 C 200.437 231.138,199.430 230.800,196.600 228.806 C 195.060 227.722,192.540 225.983,191.000 224.943 C 189.460 223.903,188.020 222.859,187.800 222.623 C 187.580 222.387,186.140 221.328,184.600 220.271 C 183.060 219.213,180.810 217.643,179.600 216.783 C 178.390 215.922,177.060 214.989,176.644 214.709 C 176.229 214.429,175.393 213.795,174.787 213.300 C 174.180 212.805,173.508 212.400,173.291 212.400 C 173.075 212.400,172.686 212.145,172.428 211.834 C 172.169 211.522,170.662 210.400,169.079 209.340 C 167.495 208.280,166.110 207.308,166.000 207.179 C 165.890 207.050,164.540 206.072,163.000 205.006 C 161.460 203.940,159.263 202.377,158.117 201.534 C 156.971 200.690,155.869 200.000,155.666 200.000 C 155.464 200.000,155.079 199.736,154.812 199.414 C 154.544 199.092,153.397 198.189,152.263 197.407 C 151.128 196.625,148.310 194.635,146.000 192.985 C 143.690 191.335,141.350 189.677,140.800 189.301 C 140.250 188.924,138.180 187.437,136.200 185.997 C 134.220 184.556,131.610 182.706,130.400 181.885 C 128.320 180.475,126.857 179.449,118.011 173.200 C 114.482 170.707,111.880 168.806,110.975 168.059 C 110.741 167.866,110.122 167.480,109.600 167.200 C 109.078 166.920,108.459 166.534,108.225 166.341 C 107.584 165.812,104.990 163.869,104.145 163.284 C 103.735 163.001,102.500 162.142,101.400 161.375 C 100.300 160.609,98.500 159.361,97.400 158.602 C 96.300 157.844,94.410 156.498,93.200 155.613 C 91.990 154.727,90.010 153.330,88.800 152.508 C 87.590 151.686,86.420 150.870,86.200 150.695 C 85.400 150.059,79.344 145.745,77.200 144.285 C 73.956 142.074,71.182 140.089,69.600 138.846 C 68.830 138.241,67.930 137.623,67.600 137.473 C 67.270 137.323,65.920 136.390,64.600 135.400 C 62.071 133.503,59.514 132.000,58.816 132.000 C 58.529 132.000,58.400 164.031,58.400 235.200 M383.600 313.800 C 383.600 314.473,383.673 314.500,384.565 314.158 C 385.297 313.877,385.023 313.200,384.176 313.200 C 383.859 313.200,383.600 313.470,383.600 313.800 M382.000 320.187 C 382.000 320.545,382.235 320.685,382.600 320.545 C 382.930 320.418,383.200 320.154,383.200 319.957 C 383.200 319.761,382.930 319.600,382.600 319.600 C 382.270 319.600,382.000 319.864,382.000 320.187 M372.800 332.600 C 372.800 332.930,372.961 333.200,373.157 333.200 C 373.354 333.200,373.618 332.930,373.745 332.600 C 373.885 332.235,373.745 332.000,373.387 332.000 C 373.064 332.000,372.800 332.270,372.800 332.600 " stroke="none" fill="#dcdbdb" fill-rule="evenodd"></path></g></svg>