<svg id="svg" version="1.1" xmlns="http://www.w3.org/2000/svg" xmlns:xlink="http://www.w3.org/1999/xlink" width="20px" height="20px" viewBox="0, 0, 400,400"><g id="svgg"><path id="path0" d="M294.200 182.428 C 291.780 182.839,289.080 183.360,288.200 183.586 C 283.641 184.754,281.076 185.564,280.680 185.960 C 280.438 186.202,279.995 186.400,279.695 186.400 C 278.838 186.400,274.041 188.808,271.400 190.564 C 263.851 195.584,257.707 202.431,254.501 209.400 C 254.197 210.060,253.774 210.922,253.562 211.315 C 249.573 218.683,248.479 239.263,251.647 247.315 C 252.061 248.368,252.400 249.545,252.400 249.930 C 252.400 250.316,252.740 251.298,253.156 252.114 C 253.572 252.930,254.034 254.079,254.181 254.667 C 254.329 255.256,254.798 256.180,255.225 256.722 C 255.651 257.264,256.001 257.909,256.003 258.154 C 256.021 261.085,266.735 272.076,274.603 277.234 C 278.717 279.931,279.519 280.410,282.600 282.004 C 284.140 282.801,285.760 283.654,286.200 283.898 C 286.640 284.143,287.855 284.716,288.900 285.171 C 289.945 285.627,291.565 286.340,292.500 286.755 C 293.435 287.170,295.550 288.086,297.200 288.791 C 298.850 289.496,300.920 290.410,301.800 290.822 C 302.680 291.234,305.470 292.466,308.000 293.561 C 317.173 297.530,322.599 300.659,325.756 303.801 C 339.592 317.569,327.308 336.232,304.883 335.512 C 290.736 335.057,279.614 328.844,271.600 316.918 C 269.293 313.485,268.075 312.667,266.853 313.728 C 266.494 314.040,264.169 315.443,261.686 316.847 C 259.203 318.251,256.863 319.582,256.486 319.805 C 256.109 320.027,254.509 320.972,252.930 321.905 C 251.352 322.837,249.889 323.600,249.679 323.600 C 249.470 323.600,249.065 323.880,248.781 324.223 C 248.496 324.566,247.709 325.111,247.032 325.434 C 246.354 325.757,244.900 326.554,243.800 327.205 C 242.700 327.856,241.215 328.651,240.500 328.974 C 238.556 329.849,238.674 331.359,240.971 335.000 C 243.209 338.548,244.029 339.692,246.558 342.800 C 250.820 348.038,255.249 352.042,261.398 356.216 C 263.778 357.832,269.907 361.200,270.467 361.200 C 270.782 361.200,271.227 361.387,271.456 361.616 C 271.940 362.100,276.494 363.814,279.400 364.606 C 280.500 364.906,282.120 365.424,283.000 365.758 C 283.880 366.092,285.151 366.373,285.825 366.382 C 286.498 366.392,288.478 366.796,290.225 367.280 C 295.101 368.632,318.232 368.638,322.826 367.289 C 324.490 366.800,326.290 366.400,326.826 366.400 C 329.253 366.400,340.372 362.184,344.200 359.812 C 353.774 353.879,359.792 347.699,363.492 340.000 C 365.356 336.123,366.400 333.623,366.400 333.040 C 366.400 332.704,366.751 331.478,367.180 330.315 C 369.042 325.263,369.044 306.672,367.183 301.148 C 366.752 299.871,366.400 298.571,366.400 298.261 C 366.400 297.696,365.115 294.574,363.493 291.200 C 359.164 282.196,348.772 272.278,337.596 266.484 C 337.048 266.200,335.700 265.435,334.600 264.783 C 333.500 264.132,332.150 263.411,331.600 263.181 C 331.050 262.951,329.070 262.033,327.200 261.141 C 321.747 258.539,320.767 258.094,317.600 256.787 C 315.950 256.106,314.060 255.299,313.400 254.995 C 310.152 253.499,307.628 252.400,307.438 252.400 C 307.092 252.400,299.498 248.631,298.200 247.815 C 293.809 245.054,292.633 244.141,290.662 241.963 C 282.083 232.483,286.860 217.596,299.323 214.974 C 310.947 212.529,320.543 216.995,327.232 227.964 C 328.271 229.668,329.653 229.905,331.287 228.659 C 332.051 228.077,332.788 227.600,332.926 227.600 C 333.064 227.600,333.947 227.077,334.888 226.438 C 335.830 225.798,338.220 224.244,340.200 222.984 C 342.180 221.724,344.430 220.292,345.200 219.802 C 349.896 216.813,355.529 213.162,356.300 212.609 C 357.393 211.824,357.446 210.729,356.463 209.284 C 356.057 208.688,355.206 207.390,354.571 206.400 C 350.854 200.604,342.826 192.682,337.952 190.000 C 337.352 189.670,335.825 188.815,334.560 188.100 C 333.294 187.385,332.065 186.798,331.829 186.796 C 331.593 186.794,330.500 186.350,329.400 185.809 C 328.300 185.268,327.108 184.819,326.750 184.813 C 326.393 184.806,325.313 184.516,324.350 184.169 C 318.312 181.991,302.231 181.063,294.200 182.428 M181.900 183.946 C 180.374 184.392,180.400 183.233,180.392 249.376 C 180.384 316.240,180.261 321.539,178.657 324.095 C 178.345 324.593,177.888 325.630,177.643 326.400 C 176.111 331.209,171.703 333.719,161.861 335.390 C 157.817 336.076,150.417 333.593,146.477 330.229 C 143.247 327.471,138.547 321.211,136.921 317.500 C 136.243 315.953,135.530 316.115,131.200 318.795 C 127.837 320.876,119.558 325.906,117.688 327.004 C 112.649 329.963,108.998 332.213,107.300 333.405 C 106.223 334.162,106.130 335.694,107.057 337.400 C 107.416 338.060,107.988 339.140,108.330 339.800 C 110.491 343.980,119.307 354.160,122.622 356.303 C 123.050 356.580,124.660 357.663,126.200 358.709 C 127.740 359.756,130.260 361.214,131.800 361.950 C 133.340 362.686,135.050 363.508,135.600 363.777 C 147.052 369.374,169.270 369.999,184.353 365.147 C 186.418 364.483,188.398 363.793,188.753 363.613 C 189.109 363.433,190.750 362.611,192.399 361.785 C 199.174 358.395,206.938 351.035,210.105 345.000 C 211.989 341.410,213.600 337.962,213.600 337.519 C 213.600 337.242,213.946 336.112,214.368 335.008 C 215.692 331.547,216.842 325.977,217.219 321.200 C 217.826 313.497,217.705 185.497,217.090 184.655 C 216.618 184.010,183.937 183.351,181.900 183.946 " stroke="none" fill="#060504" fill-rule="evenodd"></path><path id="path1" d="M0.000 200.000 L 0.000 400.000 200.000 400.000 L 400.000 400.000 400.000 200.000 L 400.000 0.000 200.000 0.000 L 0.000 0.000 0.000 200.000 M317.400 182.712 C 320.260 183.166,323.388 183.822,324.350 184.169 C 325.313 184.516,326.393 184.806,326.750 184.813 C 327.108 184.819,328.300 185.268,329.400 185.809 C 330.500 186.350,331.593 186.794,331.829 186.796 C 332.065 186.798,333.294 187.385,334.560 188.100 C 335.825 188.815,337.352 189.670,337.952 190.000 C 342.826 192.682,350.854 200.604,354.571 206.400 C 355.206 207.390,356.057 208.688,356.463 209.284 C 357.446 210.729,357.393 211.824,356.300 212.609 C 355.529 213.162,349.896 216.813,345.200 219.802 C 344.430 220.292,342.180 221.724,340.200 222.984 C 338.220 224.244,335.830 225.798,334.888 226.438 C 333.947 227.077,333.064 227.600,332.926 227.600 C 332.788 227.600,332.051 228.077,331.287 228.659 C 329.653 229.905,328.271 229.668,327.232 227.964 C 320.543 216.995,310.947 212.529,299.323 214.974 C 286.860 217.596,282.083 232.483,290.662 241.963 C 292.633 244.141,293.809 245.054,298.200 247.815 C 299.498 248.631,307.092 252.400,307.438 252.400 C 307.628 252.400,310.152 253.499,313.400 254.995 C 314.060 255.299,315.950 256.106,317.600 256.787 C 320.767 258.094,321.747 258.539,327.200 261.141 C 329.070 262.033,331.050 262.951,331.600 263.181 C 332.150 263.411,333.500 264.132,334.600 264.783 C 335.700 265.435,337.048 266.200,337.596 266.484 C 348.772 272.278,359.164 282.196,363.493 291.200 C 365.115 294.574,366.400 297.696,366.400 298.261 C 366.400 298.571,366.752 299.871,367.183 301.148 C 369.044 306.672,369.042 325.263,367.180 330.315 C 366.751 331.478,366.400 332.704,366.400 333.040 C 366.400 333.623,365.356 336.123,363.492 340.000 C 359.792 347.699,353.774 353.879,344.200 359.812 C 340.372 362.184,329.253 366.400,326.826 366.400 C 326.290 366.400,324.490 366.800,322.826 367.289 C 318.232 368.638,295.101 368.632,290.225 367.280 C 288.478 366.796,286.498 366.392,285.825 366.382 C 285.151 366.373,283.880 366.092,283.000 365.758 C 282.120 365.424,280.500 364.906,279.400 364.606 C 276.494 363.814,271.940 362.100,271.456 361.616 C 271.227 361.387,270.782 361.200,270.467 361.200 C 269.907 361.200,263.778 357.832,261.398 356.216 C 255.249 352.042,250.820 348.038,246.558 342.800 C 244.029 339.692,243.209 338.548,240.971 335.000 C 238.674 331.359,238.556 329.849,240.500 328.974 C 241.215 328.651,242.700 327.856,243.800 327.205 C 244.900 326.554,246.354 325.757,247.032 325.434 C 247.709 325.111,248.496 324.566,248.781 324.223 C 249.065 323.880,249.470 323.600,249.679 323.600 C 249.889 323.600,251.352 322.837,252.930 321.905 C 254.509 320.972,256.109 320.027,256.486 319.805 C 256.863 319.582,259.203 318.251,261.686 316.847 C 264.169 315.443,266.494 314.040,266.853 313.728 C 268.075 312.667,269.293 313.485,271.600 316.918 C 279.614 328.844,290.736 335.057,304.883 335.512 C 327.308 336.232,339.592 317.569,325.756 303.801 C 322.599 300.659,317.173 297.530,308.000 293.561 C 305.470 292.466,302.680 291.234,301.800 290.822 C 300.920 290.410,298.850 289.496,297.200 288.791 C 295.550 288.086,293.435 287.170,292.500 286.755 C 291.565 286.340,289.945 285.627,288.900 285.171 C 287.855 284.716,286.640 284.143,286.200 283.898 C 285.760 283.654,284.140 282.801,282.600 282.004 C 279.519 280.410,278.717 279.931,274.603 277.234 C 266.735 272.076,256.021 261.085,256.003 258.154 C 256.001 257.909,255.651 257.264,255.225 256.722 C 254.798 256.180,254.329 255.256,254.181 254.667 C 254.034 254.079,253.572 252.930,253.156 252.114 C 252.740 251.298,252.400 250.316,252.400 249.930 C 252.400 249.545,252.061 248.368,251.647 247.315 C 248.479 239.263,249.573 218.683,253.562 211.315 C 253.774 210.922,254.197 210.060,254.501 209.400 C 257.707 202.431,263.851 195.584,271.400 190.564 C 274.041 188.808,278.838 186.400,279.695 186.400 C 279.995 186.400,280.438 186.202,280.680 185.960 C 281.076 185.564,283.641 184.754,288.200 183.586 C 296.308 181.507,307.673 181.167,317.400 182.712 M217.090 184.655 C 217.705 185.497,217.826 313.497,217.219 321.200 C 216.842 325.977,215.692 331.547,214.368 335.008 C 213.946 336.112,213.600 337.242,213.600 337.519 C 213.600 337.962,211.989 341.410,210.105 345.000 C 206.938 351.035,199.174 358.395,192.399 361.785 C 190.750 362.611,189.109 363.433,188.753 363.613 C 187.684 364.154,180.796 366.307,177.800 367.037 C 170.515 368.812,153.497 368.811,146.200 367.034 C 142.572 366.151,136.876 364.401,135.600 363.777 C 135.050 363.508,133.340 362.686,131.800 361.950 C 130.260 361.214,127.740 359.756,126.200 358.709 C 124.660 357.663,123.050 356.580,122.622 356.303 C 119.307 354.160,110.491 343.980,108.330 339.800 C 107.988 339.140,107.416 338.060,107.057 337.400 C 106.130 335.694,106.223 334.162,107.300 333.405 C 108.998 332.213,112.649 329.963,117.688 327.004 C 119.558 325.906,127.837 320.876,131.200 318.795 C 135.530 316.115,136.243 315.953,136.921 317.500 C 137.736 319.359,140.485 323.572,142.670 326.308 C 147.477 332.329,156.035 336.378,161.861 335.390 C 171.703 333.719,176.111 331.209,177.643 326.400 C 177.888 325.630,178.345 324.593,178.657 324.095 C 180.261 321.539,180.384 316.240,180.392 249.376 C 180.400 183.233,180.374 184.392,181.900 183.946 C 183.937 183.351,216.618 184.010,217.090 184.655 " stroke="none" fill="#f4dc1c" fill-rule="evenodd"></path></g></svg>